<svg width="256" height="256" viewBox="0 0 256 256" fill="none" xmlns="http://www.w3.org/2000/svg">
<rect width="256" height="256" rx="20" fill="url(#paint0_linear_empty_state)"/>
<path d="M128 58C104.36 58 84.8 72.04 76.28 92H60C55.5817 92 52 95.5817 52 100V156C52 160.418 55.5817 164 60 164H72V178C72 180.209 73.7909 182 76 182H92C94.2091 182 96 180.209 96 178V164H160V178C160 180.209 161.791 182 164 182H180C182.209 182 184 180.209 184 178V164H196C200.418 164 204 160.418 204 156V100C204 95.5817 200.418 92 196 92H179.72C171.2 72.04 151.64 58 128 58Z" fill="#F7FAFC" fill-opacity="0.1"/>
<path d="M128 82C128 75.3726 122.627 70 116 70C109.373 70 104 75.3726 104 82C104 87.8371 107.823 92.7031 113.008 93.7454C111.049 98.4447 108.148 102.596 104.553 105.842C103.992 106.329 103.762 107.063 103.94 107.747L107.182 118.64C107.443 119.572 108.373 120.19 109.333 119.99L119.083 117.968C119.984 117.781 120.595 116.897 120.351 115.999C118.305 107.777 119.178 98.956 124.011 93.0227C125.194 94.0997 126.561 94.8533 128 95.249V108C128 109.105 128.895 110 130 110H134C135.105 110 136 109.105 136 108V86C136 83.7909 134.209 82 132 82H128Z" fill="url(#paint1_radial_empty_state)"/>
<path d="M152 82C152 75.3726 157.373 70 164 70C170.627 70 176 75.3726 176 82C176 87.8371 172.177 92.7031 166.992 93.7454C168.951 98.4447 171.852 102.596 175.447 105.842C176.008 106.329 176.238 107.063 176.06 107.747L172.818 118.64C172.557 119.572 171.627 120.19 170.667 119.99L160.917 117.968C160.016 117.781 159.405 116.897 159.649 115.999C161.695 107.777 160.822 98.956 155.989 93.0227C154.806 94.0997 153.439 94.8533 152 95.249V108C152 109.105 151.105 110 150 110H146C144.895 110 144 109.105 144 108V86C144 83.7909 145.791 82 148 82H152Z" fill="url(#paint2_radial_empty_state)"/>
<path d="M104 130C100.686 130 98 132.686 98 136V144C98 147.314 100.686 150 104 150H152C155.314 150 158 147.314 158 144V136C158 132.686 155.314 130 152 130H104Z" fill="#CBD5E0"/>
<path d="M116 138H140V142H116V138Z" fill="#F7FAFC"/>
<rect x="88" y="108" width="80" height="8" rx="4" fill="#A0AEC0"/>
<ellipse cx="128" cy="172" rx="24" ry="8" fill="#000000" fill-opacity="0.1"/>
<defs>
<linearGradient id="paint0_linear_empty_state" x1="0" y1="0" x2="256" y2="256" gradientUnits="userSpaceOnUse">
<stop stop-color="#1A202C"/>
<stop offset="1" stop-color="#2D3748"/>
</linearGradient>
<radialGradient id="paint1_radial_empty_state" cx="0" cy="0" r="1" gradientUnits="userSpaceOnUse" gradientTransform="translate(116 95) rotate(90) scale(35 35)">
<stop stop-color="#667EEA"/>
<stop offset="1" stop-color="#7F9CF5" stop-opacity="0.7"/>
</radialGradient>
<radialGradient id="paint2_radial_empty_state" cx="0" cy="0" r="1" gradientUnits="userSpaceOnUse" gradientTransform="translate(164 95) rotate(90) scale(35 35)">
<stop stop-color="#667EEA"/>
<stop offset="1" stop-color="#7F9CF5" stop-opacity="0.7"/>
</radialGradient>
</defs>
</svg>
